<?xml version="1.0" encoding="utf-8"?>
<svg version="1.1" id="Layer_1" xmlns="http://www.w3.org/2000/svg" xmlns:xlink="http://www.w3.org/1999/xlink" x="0px" y="0px"
	 viewBox="0 0 574.9 260.6" style="enable-background:new 0 0 574.9 260.6;" xml:space="preserve">
<style type="text/css">
	.st0{fill:#2DC4F4;}
	.st1{fill:#FFFFFF;}
</style>
<path class="st0" d="M222.8,58.9c-4.9,5.9-2,14.8,5.9,14.8h26.7c2,0,4.9-1,5.9-3l4.9-4.9c1-1,1-3,0-4l-21.7-21.7c-1-1-3-1-4,0
	L222.8,58.9z"/>
<path class="st0" d="M353.2,75.7L287,8.5c-3-3-8.9-3-11.9,0l-15.8,16.8c-2,2-2,5.9,0,7.9l54.3,55.3c2,2,4,3,5.9,3h26.7
	C354.2,90.5,358.1,81.6,353.2,75.7z"/>
<path class="st1" d="M59.9,123.1c-5.9-4.9-13.8-7.9-23.7-7.9c-8.9,0-16.8,2-22.7,6.9c-5.9,4.9-8.9,9.9-8.9,16.8
	c0,6.9,3,11.9,7.9,16.8c4.9,4,12.8,6.9,22.7,9.9c8.9,3,15.8,4.9,19.8,7.9c4,3,5.9,6.9,5.9,10.9c0,4.9-2,8.9-6.9,11.9
	c-4,3-9.9,4.9-16.8,4.9s-12.8-2-18.8-4.9c-4.9-3-6.9-6.9-7.9-12.8H2.6c0,7.9,4,13.8,9.9,18.8c6.9,4.9,14.8,6.9,24.7,6.9
	c8.9,0,16.8-2,23.7-6.9c5.9-4,8.9-9.9,8.9-16.8c0-6.9-3-11.9-7.9-16.8c-4.9-4-12.8-7.9-22.7-9.9c-9.9-3-15.8-4.9-19.8-7.9
	c-4-3-4.9-5.9-4.9-10.9c0-4.9,2-8.9,5.9-11.9c4-3,9.9-4.9,16.8-4.9s12.8,2,16.8,5.9c4,3,5.9,7.9,6.9,11.9h8.9
	C68.8,133.9,65.8,128,59.9,123.1z"/>
<path class="st1" d="M567.5,183.3c-1,0-2,0-2,1c-2,8.9-10.9,15.8-20.7,15.8c-11.9,0-20.7-9.9-20.7-20.7v-55.3h23.7c1,0,2-1,2-2v-4.9
	c0-1-1-2-2-2h-23.7V92.5c0-1-1-2-2-2h-4.9c-1,0-2,1-2,2v23.7h-5.9c-1,0-2,1-2,2v4.9c0,1,1,2,2,2h5.9v55.3
	c0,15.8,12.8,29.6,29.6,29.6c13.8,0,25.7-9.9,28.6-22.7c0-1,0-2-2-2L567.5,183.3z"/>
<path class="st1" d="M377.9,116.2c-10.9,0-19.8,5.9-25.7,13.8c-4.9-8.9-14.8-13.8-25.7-13.8c-16.8,0-29.6,12.8-29.6,29.6V207
	c0,1,1,2,2,2h4.9c1,0,2-1,2-2v-61.2c0-11.9,9.9-20.7,20.7-20.7c11.9,0,20.7,8.9,20.7,20.7c0,0,0,0,0,1V208c0,1,1,2,2,2h4.9
	c1,0,2-1,2-2v-61.2c0,0,0,0,0-1c0-10.9,9.9-20.7,20.7-20.7c11.9,0,20.7,9.9,20.7,20.7V207c0,1,1,2,2,2h4.9c1,0,2-1,2-2v-61.2
	C407.5,129,394.7,116.2,377.9,116.2z"/>
<path class="st1" d="M259.4,116.2c-10.9,0-19.8,5.9-25.7,13.8c-4.9-8.9-14.8-13.8-25.7-13.8c-16.8,0-29.6,12.8-29.6,29.6V207
	c0,1,1,2,2,2h4.9c1,0,2-1,2-2v-62.2c0-11.9,9.9-20.7,20.7-20.7c11.9,0,20.7,8.9,20.7,20.7c0,0,0,0,0,1V207c0,1,1,2,2,2h4.9
	c1,0,2-1,2-2v-62.2c0,0,0,0,0-1c0-10.9,9.9-20.7,20.7-20.7c11.9,0,20.7,9.9,20.7,20.7V205c0,1,1,2,2,2h4.9c1,0,2-1,2-2v-60.2
	C289,129,276.2,116.2,259.4,116.2z"/>
<path class="st1" d="M424.3,162.6h74.1c0-20.7-16.8-38.5-37.5-38.5C441.1,124.1,424.3,140.8,424.3,162.6z M460.9,209
	c-24.7,0-45.4-20.7-45.4-46.4c0-25.7,20.7-46.4,45.4-46.4s45.4,20.7,45.4,46.4c0,1,0,3,0,4v2c0,1-1,2-2,2h-79
	c4,16.8,18.8,29.6,36.5,29.6c13.8,0,25.7-6.9,32.6-19.8c0-1,2-1,3-1l4,2c1,0,1,2,1,3C492.5,200.1,477.6,209,460.9,209z"/>
<path class="st1" d="M125.1,124.1c-20.7,0-37.5,16.8-37.5,37.5s16.8,37.5,37.5,37.5s37.5-16.8,37.5-37.5S145.8,124.1,125.1,124.1z
	 M125.1,209c-25.7,0-46.4-20.7-46.4-46.4c0-25.7,20.7-46.4,46.4-46.4s46.4,20.7,46.4,46.4C171.5,188.3,150.7,209,125.1,209z"/>
<path class="st0" d="M179.4,249.5c2,2,4.9,3,7.9,3c2,0,3,0,4.9-1c1-1,2-2,2-3c0-1,0-1,0-1l-1-1l-1-1c-1,0-1,0-2-1c0,0-1,0-2,0
	c-1,0-2-1-3-1c-1,0-1,0-2-1c-1,0-2-1-2-1c-1,0-1-1-1-2s-1-2-1-2c0-2,1-4,3-4.9c2-1,4-2,5.9-2c3,0,5.9,1,7.9,3l-1,2c-3-2-4.9-2-6.9-2
	c-1,0-3,0-4,1c-1,1-2,2-2,3c0,1,0,1,0,1l1,1l1,1c0,0,1,0,2,1c0,0,1,0,2,1c1,0,2,0,3,1c1,1,2,1,2,1l2,1c1,0,1,1,1,2s1,2,1,2
	c0,2-1,4-3,4.9c-2,1-4,2-6.9,2c-4,0-6.9-1-9.9-4L179.4,249.5z"/>
<path class="st0" d="M219.9,234.7c3-2,5.9-4,8.9-4c3,0,5.9,1,8.9,3l-2,2c-1-1-4-2-5.9-2c-3,0-4.9,1-6.9,3c-2,2-3,4-3,6.9
	s1,4.9,3,6.9c2,2,4,3,6.9,3c3,0,4.9-1,6.9-3l2,2c-3,3-5.9,4-8.9,4c-4,0-6.9-1-8.9-4c-2-3-4-4.9-4-8.9S217.9,236.6,219.9,234.7z"/>
<polygon class="st0" points="257.4,230.7 260.4,230.7 260.4,240.6 274.2,240.6 274.2,230.7 277.2,230.7 277.2,255.4 274.2,255.4 
	274.2,243.6 260.4,243.6 260.4,255.4 257.4,255.4 "/>
<path class="st0" d="M318.6,250.5c2-2,3-4,3-6.9s-1-4.9-3-6.9c-2-2-4.9-3-6.9-3c-2,0-4.9,1-6.9,3c-2,2-3,4-3,6.9s1,4.9,3,6.9
	c2,2,4,3,6.9,3C314.7,253.4,316.7,252.5,318.6,250.5z M320.6,234.7c3,2,4,4.9,4,8.9s-1,6.9-4,8.9c-3,2-5.9,4-8.9,4c-4,0-6.9-1-8.9-4
	c-2-3-4-5.9-4-8.9s1-6.9,4-8.9c3-2,5.9-4,8.9-4S317.6,231.7,320.6,234.7z"/>
<path class="st0" d="M363.1,250.5c2-2,3-4,3-6.9s-1-4.9-3-6.9c-2-2-4-3-6.9-3c-3,0-4.9,1-6.9,3c-2,2-3,4-3,6.9s1,4.9,3,6.9
	c2,2,4,3,6.9,3C359.1,253.4,361.1,252.5,363.1,250.5z M365.1,234.7c3,2,4,4.9,4,8.9s-1,6.9-4,8.9c-3,2-5.9,4-8.9,4c-4,0-6.9-1-8.9-4
	c-2-3-4-4.9-4-8.9s1-6.9,4-8.9c3-2,5.9-4,8.9-4S363.1,231.7,365.1,234.7z"/>
<polygon class="st0" points="389.7,230.7 392.7,230.7 392.7,252.5 407.5,252.5 407.5,255.4 388.8,255.4 388.8,230.7 "/>
</svg>
